<?xml version="1.0" encoding="utf-8" ?><!-- created by svgstack.com | Attribution is required. -->
<svg xmlns="http://www.w3.org/2000/svg" xmlns:xlink="http://www.w3.org/1999/xlink" width="1024" height="1024"><path fill="#F69A42" transform="scale(2 2)" d="M101.342 164.409C105.94 160.544 112.9 157.131 118.144 153.921L240.353 78.695C245.344 75.6183 250.269 72.2828 255.412 69.4727C258.045 69.3767 262.198 73.0016 264.388 74.3215L398.487 155.894C403.09 158.68 408.458 160.991 412.601 164.409L259.062 164.409L153.733 164.412C136.292 164.412 118.772 164.037 101.342 164.409Z"/><path fill="#665DB7" transform="scale(2 2)" d="M89.358 170.893L122.418 170.893L422.776 170.893L422.776 186.465C412.909 186.469 403.013 186.27 393.151 186.465L393.151 421.89C395.504 422.086 397.959 421.935 400.324 421.92L412.585 421.888C423.667 421.884 434.81 422.155 445.885 421.89L445.885 437.623L390.563 437.623L65.6108 437.623L65.6108 421.89L118.752 421.89L118.752 186.465L89.358 186.465L89.358 170.893ZM134.745 366.789C137.514 366.965 140.222 366.934 142.99 366.789C148.657 366.776 154.337 366.694 160.003 366.789C166.872 367.139 177.155 367.166 184 366.789C189.741 366.773 195.492 366.685 201.231 366.789C203.429 366.977 205.549 366.906 207.749 366.789L207.733 341.092C207.729 305.121 216.432 302.286 250.712 302.265C269.578 302.253 297.27 297.32 303.163 321.544C305.407 330.768 303.876 356.022 304.003 366.789L311.7 366.789C317.359 366.775 323.096 366.57 328.746 366.789L351.719 366.789C357.337 366.784 362.967 366.703 368.583 366.789L377.091 366.789L377.091 186.465L134.745 186.465L134.745 366.789ZM233.646 319.081C221.243 319.613 223.772 330.937 223.77 339.833L223.771 402.905C223.772 409.091 223.477 415.416 223.763 421.582L223.778 421.89L278.562 421.89L288.037 421.89L288.056 337.498C288.098 315.618 283.988 319.072 265.139 319.073L233.646 319.081ZM163.489 383.343L134.745 383.343L134.757 410.098C134.765 413.966 135.218 418.064 134.745 421.89L179.375 421.89L207.749 421.89L207.749 383.343L163.489 383.343ZM312.99 383.343L304.003 383.343L304.003 421.89L368.583 421.89L377.091 421.89L377.102 396.226C377.104 391.95 377.27 387.612 377.091 383.343L312.99 383.343Z"/><path fill="#F69A42" transform="scale(2 2)" d="M159.03 266C152.175 265.958 143.432 267.943 143.027 258.658C142.61 249.112 142.993 239.385 143.005 229.818C143.03 208.771 141.079 209.497 160.751 209.498L185.625 209.517C192.433 208.87 200.72 208.64 201.174 217.376C201.573 225.045 202.379 252.686 201.169 260.047C199.836 268.163 189.81 266.019 184.031 266.011L159.03 266ZM160.003 226.733L160.003 249.781L184 249.781L184 226.733L160.003 226.733Z"/><path fill="#F69A42" transform="scale(2 2)" d="M277.063 266L248.457 265.997C222.837 265.982 226.766 264.797 226.747 241.719L226.744 225.89C226.75 218.416 225.363 210.615 235.249 209.517L264.043 209.498C280.831 209.489 285.226 205.938 285.24 225.679L285.238 239.96C285.235 249.845 289.082 263.899 277.063 266ZM243.398 226.1C243.392 233.976 243.151 241.914 243.398 249.781L267.653 249.781C267.798 241.89 267.491 233.991 267.653 226.1C259.573 225.969 251.481 226.113 243.398 226.1Z"/><path fill="#F69A42" transform="scale(2 2)" d="M362.165 266C350.59 266.607 331.974 266.709 320.414 265.991C316.058 265.721 312.104 263.805 311.794 258.831C311.067 247.147 311.143 229.556 311.751 217.846C311.991 213.215 313.66 211.255 318.13 209.517L346.423 209.526C371.436 209.508 368.577 208.951 368.589 231.347L368.589 249.221C368.586 255.26 370.483 264.917 362.165 266ZM332.361 226.1L328.746 226.1L328.746 248.292L349.063 248.292L351.719 248.292L351.719 226.1L332.361 226.1Z"/><path fill="#FEFEFE" transform="scale(2 2)" d="M243.398 249.781C243.151 241.914 243.392 233.976 243.398 226.1C251.481 226.113 259.573 225.969 267.653 226.1C267.491 233.991 267.798 241.89 267.653 249.781L243.398 249.781Z"/><path fill="#FEFEFE" transform="scale(2 2)" d="M328.746 226.1L332.361 226.1L351.719 226.1L351.719 248.292L349.063 248.292L328.746 248.292L328.746 226.1Z"/><path fill="#FEFEFE" transform="scale(2 2)" d="M160.003 249.781L160.003 226.733L184 226.733L184 249.781L160.003 249.781Z"/><path fill="#08B1EC" transform="scale(2 2)" d="M223.778 421.89L223.763 421.582C223.477 415.416 223.772 409.091 223.771 402.905L223.77 339.833C223.772 330.937 221.243 319.613 233.646 319.081L265.139 319.073C283.988 319.072 288.098 315.618 288.056 337.498L288.037 421.89L278.562 421.89L223.778 421.89Z"/><path fill="#F69A42" transform="scale(2 2)" d="M311.7 366.789L311.685 345.209C311.685 323.142 313.821 326.261 333.191 326.267C342.033 326.269 350.941 326.031 359.772 326.324C371.782 326.722 368.588 339.186 368.588 347.496C368.588 353.662 368.968 360.033 368.624 366.169L368.583 366.789C362.967 366.703 357.337 366.784 351.719 366.789C350.894 362.606 351.721 347.906 351.719 342.751L338.576 342.767C335.299 342.803 332.018 342.987 328.746 342.751L328.746 366.789C323.096 366.57 317.359 366.775 311.7 366.789Z"/><path fill="#F69A42" transform="scale(2 2)" d="M142.99 366.789L142.979 343.983C142.98 338.651 140.991 328.102 148.274 326.693C152.81 325.816 160.848 326.279 165.682 326.275C172.391 326.27 195.021 324.306 199.372 329.292C201.892 332.181 201.238 336.954 201.246 340.503L201.216 357.45C201.189 360.556 200.835 363.699 201.231 366.789C195.492 366.685 189.741 366.773 184 366.789L184 342.751C176.006 342.759 167.995 342.593 160.003 342.751C159.998 350.742 160.285 358.808 160.003 366.789C154.337 366.694 148.657 366.776 142.99 366.789Z"/></svg> 